<?xml version="1.0" encoding="utf-8"?>
<!-- Generator: Adobe Illustrator 27.5.0, SVG Export Plug-In . SVG Version: 6.00 Build 0)  -->
<svg version="1.1" xmlns="http://www.w3.org/2000/svg" xmlns:xlink="http://www.w3.org/1999/xlink" x="0px" y="0px"
	 viewBox="0 0 500 500" style="enable-background:new 0 0 500 500;" xml:space="preserve">
<g id="Background_Complete">
	<g>
		<rect y="382.398" style="fill:#EBEBEB;" width="500" height="0.25"/>
		<rect x="416.779" y="398.494" style="fill:#EBEBEB;" width="33.122" height="0.25"/>
		<rect x="322.527" y="401.208" style="fill:#EBEBEB;" width="8.693" height="0.25"/>
		<rect x="396.586" y="389.208" style="fill:#EBEBEB;" width="19.192" height="0.25"/>
		<rect x="52.459" y="390.888" style="fill:#EBEBEB;" width="43.193" height="0.25"/>
		<rect x="104.556" y="390.888" style="fill:#EBEBEB;" width="6.333" height="0.25"/>
		<rect x="131.471" y="395.111" style="fill:#EBEBEB;" width="93.676" height="0.25"/>
		<path style="fill:#EBEBEB;" d="M237.014,337.8H43.915c-3.147,0-5.708-2.561-5.708-5.708V60.66c0-3.147,2.561-5.708,5.708-5.708
			h193.099c3.146,0,5.707,2.561,5.707,5.708v271.432C242.721,335.239,240.16,337.8,237.014,337.8z M43.915,55.203
			c-3.01,0-5.458,2.448-5.458,5.458v271.432c0,3.01,2.448,5.458,5.458,5.458h193.099c3.009,0,5.457-2.448,5.457-5.458V60.66
			c0-3.009-2.448-5.458-5.457-5.458H43.915z"/>
		<path style="fill:#EBEBEB;" d="M453.31,337.8H260.212c-3.147,0-5.707-2.561-5.707-5.708V60.66c0-3.147,2.561-5.708,5.707-5.708
			H453.31c3.148,0,5.708,2.561,5.708,5.708v271.432C459.019,335.239,456.458,337.8,453.31,337.8z M260.212,55.203
			c-3.009,0-5.457,2.448-5.457,5.458v271.432c0,3.01,2.448,5.458,5.457,5.458H453.31c3.01,0,5.458-2.448,5.458-5.458V60.66
			c0-3.009-2.448-5.458-5.458-5.458H260.212z"/>
	</g>
	<g>
		<g>
			<g>
				<g>
					<g>
						<path style="fill:#E0E0E0;" d="M85.384,345.825c0.013-0.396,1.344-39.676,7.733-45.889c6.214-6.041,13.347-0.225,13.646,0.025
							l0.641-0.768c-0.081-0.068-8.13-6.639-14.984,0.025c-6.676,6.492-7.982,44.94-8.035,46.574L85.384,345.825z"/>
					</g>
					<g>
						<path style="fill:#E0E0E0;" d="M84.836,353.545c0.046-0.47,4.367-47.156-12.683-66.724l-0.754,0.656
							c16.767,19.243,12.487,65.505,12.442,65.97L84.836,353.545z"/>
					</g>
					<g>
						<path style="fill:#E0E0E0;" d="M85.466,348.606l0.998-0.066c-0.035-0.529-3.337-53.076,9.169-64.579l-0.677-0.736
							C82.1,295.051,85.323,346.425,85.466,348.606z"/>
					</g>
					<g>
						<path style="fill:#E0E0E0;" d="M83.838,348.577l1-0.008c-0.012-1.447-0.413-35.493-10.084-41.035
							c-2.15-1.233-4.255-1.438-6.257-0.61c-5.848,2.419-8.746,12.826-8.866,13.268l0.965,0.264
							c0.028-0.103,2.89-10.377,8.285-12.607c1.701-0.702,3.509-0.517,5.377,0.554C83.435,313.66,83.835,348.228,83.838,348.577z"/>
					</g>
					<g>
						<path style="fill:#E0E0E0;" d="M87.604,348.602l0.998-0.057c-0.015-0.268-1.459-26.904,5.729-36.289
							c1.742-2.273,3.632-3.357,5.63-3.218c4.71,0.329,8.66,7.222,8.699,7.291l0.871-0.492c-0.171-0.303-4.252-7.429-9.499-7.796
							c-2.347-0.167-4.535,1.049-6.495,3.607C86.124,321.327,87.54,347.493,87.604,348.602z"/>
					</g>
					<g>
						<path style="fill:#E0E0E0;" d="M86.028,352.224c0.196-2.584,4.699-63.402-3.225-74.119L82,278.699
							c7.705,10.421,3.079,72.82,3.031,73.449L86.028,352.224z"/>
					</g>
				</g>
				<g>
					<path style="fill:#EBEBEB;" d="M66.342,313.087c0,0,4.754,1.752,3.34,5.89c-1.413,4.137-16.445,10.946-16.445,10.946
						s-6.295-5.77-0.514-15.154C58.506,305.385,66.214,310.127,66.342,313.087z"/>
				</g>
				<g>
					<path style="fill:#EBEBEB;" d="M87.007,305.212c0,0-5.062-0.212-5.35,4.151c-0.288,4.363,10.966,16.432,10.966,16.432
						s8.031-2.903,6.306-13.79C97.205,301.118,88.265,302.529,87.007,305.212z"/>
				</g>
				<g>
					<path style="fill:#EBEBEB;" d="M91.293,284.329c0,0-3.375-0.362-3.103-2.418c0.272-2.056,13.119-7.346,20.699,1.209
						c0,0-4.854,8.337-11.87,8.446C90.003,291.675,91.293,284.329,91.293,284.329z"/>
				</g>
				<g>
					<path style="fill:#EBEBEB;" d="M85.004,279.337c0,0,3.056,1.477,3.912-0.411c0.857-1.888-7.249-13.173-18.207-9.922
						c0,0-0.29,9.643,5.607,13.446C82.214,286.254,85.004,279.337,85.004,279.337z"/>
				</g>
				<g>
					<path style="fill:#EBEBEB;" d="M100.983,311.424c0,0-2.329-1.881,0.184-2.798c2.514-0.918,14.847-0.657,14.976,11.56
						c0,0-14.365,2.387-16.143-2.267C98.222,313.266,100.983,311.424,100.983,311.424z"/>
				</g>
				<g>
					<path style="fill:#EBEBEB;" d="M71.691,284.023c0,0,2.329-1.881-0.184-2.798c-2.514-0.918-14.847-0.657-14.976,11.56
						c0,0,14.365,2.387,16.143-2.266C74.451,285.864,71.691,284.023,71.691,284.023z"/>
				</g>
				<g>
					<path style="fill:#EBEBEB;" d="M79.285,293.865c0,0,0.205-2.286-1.641-1.39c-1.846,0.896-8.275,7.832-1.61,14.415
						c0,0,8.972-6.645,7.354-10.105C81.771,293.324,79.285,293.865,79.285,293.865z"/>
				</g>
				<g>
					<path style="fill:#EBEBEB;" d="M103.065,297.122c0,0-1.392-1.824,0.647-2.051c2.039-0.226,11.177,2.213,9.049,11.336
						c0,0-11.133-0.837-11.61-4.626C100.674,297.991,103.065,297.122,103.065,297.122z"/>
				</g>
				<polygon style="fill:#F0F0F0;" points="65.454,382.439 103.652,382.439 107.773,340.618 61.333,340.618 				"/>
				
					<rect x="59.293" y="336.004" transform="matrix(-1 -1.224647e-16 1.224647e-16 -1 169.1059 681.2356)" style="fill:#E6E6E6;" width="50.519" height="9.228"/>
			</g>
			<g>
				<g>
					<g>
						<path style="fill:#E0E0E0;" d="M414.224,345.825c-0.013-0.396-1.344-39.676-7.733-45.889
							c-6.214-6.041-13.347-0.225-13.646,0.025l-0.641-0.768c0.081-0.068,8.13-6.639,14.984,0.025
							c6.676,6.492,7.982,44.94,8.035,46.574L414.224,345.825z"/>
					</g>
					<g>
						<path style="fill:#E0E0E0;" d="M414.773,353.545c-0.046-0.47-4.367-47.156,12.683-66.724l0.754,0.656
							c-16.767,19.243-12.487,65.505-12.442,65.97L414.773,353.545z"/>
					</g>
					<g>
						<path style="fill:#E0E0E0;" d="M414.142,348.606l-0.998-0.066c0.035-0.529,3.337-53.076-9.169-64.579l0.677-0.736
							C417.509,295.051,414.286,346.425,414.142,348.606z"/>
					</g>
					<g>
						<path style="fill:#E0E0E0;" d="M415.77,348.577l-1-0.008c0.012-1.447,0.413-35.493,10.083-41.035
							c2.15-1.233,4.255-1.438,6.257-0.61c5.848,2.419,8.746,12.826,8.866,13.268l-0.965,0.264
							c-0.028-0.103-2.89-10.377-8.285-12.607c-1.701-0.702-3.509-0.517-5.377,0.554C416.174,313.66,415.773,348.228,415.77,348.577
							z"/>
					</g>
					<g>
						<path style="fill:#E0E0E0;" d="M412.004,348.602l-0.998-0.057c0.015-0.268,1.459-26.904-5.729-36.289
							c-1.742-2.273-3.632-3.357-5.63-3.218c-4.71,0.329-8.66,7.222-8.699,7.291l-0.871-0.492c0.171-0.303,4.252-7.429,9.499-7.796
							c2.347-0.167,4.535,1.049,6.495,3.607C413.485,321.327,412.068,347.493,412.004,348.602z"/>
					</g>
					<g>
						<path style="fill:#E0E0E0;" d="M413.58,352.224c-0.196-2.584-4.699-63.402,3.225-74.119l0.804,0.594
							c-7.705,10.421-3.079,72.82-3.031,73.449L413.58,352.224z"/>
					</g>
				</g>
				<g>
					<path style="fill:#EBEBEB;" d="M433.266,313.087c0,0-4.754,1.752-3.34,5.89c1.413,4.137,16.445,10.946,16.445,10.946
						s6.295-5.77,0.514-15.154C441.103,305.385,433.395,310.127,433.266,313.087z"/>
				</g>
				<g>
					<path style="fill:#EBEBEB;" d="M412.601,305.212c0,0,5.062-0.212,5.35,4.151c0.288,4.363-10.966,16.432-10.966,16.432
						s-8.031-2.903-6.306-13.79C402.404,301.118,411.343,302.529,412.601,305.212z"/>
				</g>
				<g>
					<path style="fill:#EBEBEB;" d="M408.316,284.329c0,0,3.375-0.362,3.103-2.418c-0.272-2.056-13.119-7.346-20.699,1.209
						c0,0,4.854,8.337,11.87,8.446C409.605,291.675,408.316,284.329,408.316,284.329z"/>
				</g>
				<g>
					<path style="fill:#EBEBEB;" d="M414.604,279.337c0,0-3.056,1.477-3.912-0.411c-0.857-1.888,7.249-13.173,18.207-9.922
						c0,0,0.29,9.643-5.607,13.446C417.395,286.254,414.604,279.337,414.604,279.337z"/>
				</g>
				<g>
					<path style="fill:#EBEBEB;" d="M398.626,311.424c0,0,2.329-1.881-0.184-2.798c-2.514-0.918-14.847-0.657-14.976,11.56
						c0,0,14.365,2.387,16.143-2.267C401.387,313.266,398.626,311.424,398.626,311.424z"/>
				</g>
				<g>
					<path style="fill:#EBEBEB;" d="M427.918,284.023c0,0-2.329-1.881,0.184-2.798c2.514-0.918,14.847-0.657,14.976,11.56
						c0,0-14.365,2.387-16.143-2.266C425.157,285.864,427.918,284.023,427.918,284.023z"/>
				</g>
				<g>
					<path style="fill:#EBEBEB;" d="M420.324,293.865c0,0-0.205-2.286,1.641-1.39c1.846,0.896,8.275,7.832,1.61,14.415
						c0,0-8.972-6.645-7.354-10.105C417.838,293.324,420.324,293.865,420.324,293.865z"/>
				</g>
				<g>
					<path style="fill:#EBEBEB;" d="M396.544,297.122c0,0,1.392-1.824-0.647-2.051c-2.039-0.226-11.177,2.213-9.049,11.336
						c0,0,11.133-0.837,11.61-4.626C398.935,297.991,396.544,297.122,396.544,297.122z"/>
				</g>
				<polygon style="fill:#F0F0F0;" points="434.155,382.439 395.957,382.439 391.836,340.618 438.276,340.618 				"/>
				<rect x="389.796" y="336.004" style="fill:#E6E6E6;" width="50.519" height="9.228"/>
			</g>
		</g>
		<g>
			<g>
				<rect x="136.021" y="127.768" style="fill:#FAFAFA;" width="101.723" height="204.536"/>
				<rect x="133.674" y="124.992" style="fill:#F0F0F0;" width="106.418" height="10.037"/>
				<g>
					<rect x="133.674" y="136.141" style="fill:#F0F0F0;" width="106.418" height="5.019"/>
					<rect x="133.674" y="143.589" style="fill:#F0F0F0;" width="106.418" height="5.019"/>
					<rect x="133.674" y="151.037" style="fill:#F0F0F0;" width="106.418" height="5.018"/>
					<rect x="133.674" y="158.486" style="fill:#F0F0F0;" width="106.418" height="5.019"/>
					<rect x="133.674" y="165.934" style="fill:#F0F0F0;" width="106.418" height="5.019"/>
					<rect x="133.674" y="173.382" style="fill:#F0F0F0;" width="106.418" height="5.018"/>
					<rect x="133.674" y="180.83" style="fill:#F0F0F0;" width="106.418" height="5.018"/>
					<rect x="133.674" y="188.279" style="fill:#F0F0F0;" width="106.418" height="5.019"/>
					<rect x="133.674" y="195.727" style="fill:#F0F0F0;" width="106.418" height="5.019"/>
					<rect x="133.674" y="203.175" style="fill:#F0F0F0;" width="106.418" height="5.018"/>
					<rect x="133.674" y="210.623" style="fill:#F0F0F0;" width="106.418" height="5.019"/>
					<rect x="133.674" y="218.071" style="fill:#F0F0F0;" width="106.418" height="5.019"/>
					<rect x="133.674" y="225.52" style="fill:#F0F0F0;" width="106.418" height="5.018"/>
					<rect x="133.674" y="232.968" style="fill:#F0F0F0;" width="106.418" height="5.019"/>
					<rect x="133.674" y="240.416" style="fill:#F0F0F0;" width="106.418" height="5.019"/>
					<rect x="133.674" y="247.864" style="fill:#F0F0F0;" width="106.418" height="5.018"/>
					<rect x="133.674" y="255.313" style="fill:#F0F0F0;" width="106.418" height="5.018"/>
					<rect x="133.674" y="262.761" style="fill:#F0F0F0;" width="106.418" height="5.019"/>
					<rect x="133.674" y="270.209" style="fill:#F0F0F0;" width="106.418" height="5.018"/>
					<rect x="133.674" y="277.657" style="fill:#F0F0F0;" width="106.418" height="5.018"/>
					<rect x="133.674" y="285.105" style="fill:#F0F0F0;" width="106.418" height="5.019"/>
					<rect x="133.674" y="292.554" style="fill:#F0F0F0;" width="106.418" height="5.019"/>
					<rect x="133.674" y="300.002" style="fill:#F0F0F0;" width="106.418" height="5.018"/>
					<rect x="133.674" y="307.45" style="fill:#F0F0F0;" width="106.418" height="5.019"/>
					<rect x="133.674" y="314.898" style="fill:#F0F0F0;" width="106.418" height="5.019"/>
					<rect x="133.674" y="322.347" style="fill:#F0F0F0;" width="106.418" height="5.018"/>
					<rect x="133.674" y="329.795" style="fill:#F0F0F0;" width="106.418" height="5.018"/>
				</g>
			</g>
			<g>
				<rect x="262.256" y="127.768" style="fill:#FAFAFA;" width="101.723" height="204.536"/>
				<rect x="259.909" y="124.992" style="fill:#F0F0F0;" width="106.418" height="10.037"/>
				<g>
					<rect x="259.909" y="136.141" style="fill:#F0F0F0;" width="106.418" height="0.923"/>
					<rect x="259.909" y="138.236" style="fill:#F0F0F0;" width="106.418" height="0.923"/>
					<rect x="259.909" y="140.332" style="fill:#F0F0F0;" width="106.418" height="0.923"/>
					<rect x="259.909" y="142.428" style="fill:#F0F0F0;" width="106.418" height="0.923"/>
					<rect x="259.909" y="144.523" style="fill:#F0F0F0;" width="106.418" height="0.923"/>
					<rect x="259.909" y="146.619" style="fill:#F0F0F0;" width="106.418" height="0.923"/>
					<rect x="259.909" y="148.715" style="fill:#F0F0F0;" width="106.418" height="0.923"/>
					<rect x="259.909" y="150.81" style="fill:#F0F0F0;" width="106.418" height="0.923"/>
					<rect x="259.909" y="152.906" style="fill:#F0F0F0;" width="106.418" height="0.923"/>
					<rect x="259.909" y="155.001" style="fill:#F0F0F0;" width="106.418" height="0.923"/>
					<rect x="259.909" y="157.097" style="fill:#F0F0F0;" width="106.418" height="0.923"/>
					<rect x="259.909" y="159.193" style="fill:#F0F0F0;" width="106.418" height="0.923"/>
					<rect x="259.909" y="161.288" style="fill:#F0F0F0;" width="106.418" height="0.923"/>
					<rect x="259.909" y="163.384" style="fill:#F0F0F0;" width="106.418" height="0.923"/>
					<rect x="259.909" y="165.48" style="fill:#F0F0F0;" width="106.418" height="0.923"/>
					<rect x="259.909" y="167.575" style="fill:#F0F0F0;" width="106.418" height="0.923"/>
					<rect x="259.909" y="169.671" style="fill:#F0F0F0;" width="106.418" height="0.923"/>
					<rect x="259.909" y="171.766" style="fill:#F0F0F0;" width="106.418" height="0.923"/>
				</g>
			</g>
		</g>
		<g>
			
				<ellipse transform="matrix(0.1602 -0.9871 0.9871 0.1602 114.9161 327.6307)" style="fill:#F0F0F0;" cx="250" cy="96.281" rx="15.169" ry="15.17"/>
			
				<ellipse transform="matrix(0.1602 -0.9871 0.9871 0.1602 114.9161 327.6307)" style="fill:#FAFAFA;" cx="250" cy="96.281" rx="12.898" ry="12.898"/>
			
				<polyline style="fill:#F0F0F0;stroke:#E0E0E0;stroke-width:2;stroke-linecap:round;stroke-linejoin:round;stroke-miterlimit:10;" points="
				249.392,87.434 249.392,96.45 243.416,93.069 			"/>
		</g>
	</g>
</g>
<g id="Background_Simple" style="display:none;">
	<g style="display:inline;">
		<path style="fill:#407BFF;" d="M104.556,101.625c27.919-59.449,127.059-51.062,165.317-9.255
			c38.258,41.806,50.696,68.599,85.208,52.983c34.512-15.616,78.518-11.44,81.043,38.164s-37.913,108.263-102.09,125.615
			c-64.177,17.352-64.161,78.759-149.1,66.368c-46.31-6.756-47.365-56.86-40.825-98.301S72.177,170.569,104.556,101.625z"/>
		<path style="opacity:0.9;fill:#FFFFFF;" d="M104.556,101.625c27.919-59.449,127.059-51.062,165.317-9.255
			c38.258,41.806,50.696,68.599,85.208,52.983c34.512-15.616,78.518-11.44,81.043,38.164s-37.913,108.263-102.09,125.615
			c-64.177,17.352-64.161,78.759-149.1,66.368c-46.31-6.756-47.365-56.86-40.825-98.301S72.177,170.569,104.556,101.625z"/>
	</g>
</g>
<g id="Shadow_1_">
	<ellipse id="_x3C_Path_x3E__359_" style="fill:#F5F5F5;" cx="250" cy="416.238" rx="193.889" ry="11.323"/>
</g>
<g id="Interface">
	<g>
		<path style="opacity:0.5;fill:#407BFF;" d="M438.474,360.521H255.763c-2.018,0-3.654-1.636-3.654-3.654V157.411
			c0-2.018,1.636-3.654,3.654-3.654h182.711c2.018,0,3.654,1.636,3.654,3.654v199.456
			C442.128,358.885,440.492,360.521,438.474,360.521z"/>
		<path style="fill:#407BFF;" d="M432.474,356.521H249.763c-2.018,0-3.654-1.636-3.654-3.654V153.411
			c0-2.018,1.636-3.654,3.654-3.654h182.711c2.018,0,3.654,1.636,3.654,3.654v199.456
			C436.128,354.885,434.492,356.521,432.474,356.521z"/>
		<path style="opacity:0.8;fill:#FFFFFF;enable-background:new    ;" d="M432.474,356.521H249.763c-2.018,0-3.654-1.636-3.654-3.654
			V153.411c0-2.018,1.636-3.654,3.654-3.654h182.711c2.018,0,3.654,1.636,3.654,3.654v199.456
			C436.128,354.885,434.492,356.521,432.474,356.521z"/>
	</g>
	<g>
		<path style="opacity:0.5;fill:#407BFF;" d="M189.093,325.633H96.382c-2.018,0-3.654-1.636-3.654-3.654V152.523
			c0-2.018,1.636-3.654,3.654-3.654h92.711c2.018,0,3.654,1.636,3.654,3.654v169.456
			C192.747,323.997,191.111,325.633,189.093,325.633z"/>
		<path style="fill:#407BFF;" d="M183.093,319.633H90.382c-2.018,0-3.654-1.636-3.654-3.654V146.523
			c0-2.018,1.636-3.654,3.654-3.654h92.711c2.018,0,3.654,1.636,3.654,3.654v169.456
			C186.747,317.997,185.111,319.633,183.093,319.633z"/>
		<path style="opacity:0.8;fill:#FFFFFF;enable-background:new    ;" d="M183.093,319.633H90.382c-2.018,0-3.654-1.636-3.654-3.654
			V146.523c0-2.018,1.636-3.654,3.654-3.654h92.711c2.018,0,3.654,1.636,3.654,3.654v169.456
			C186.747,317.997,185.111,319.633,183.093,319.633z"/>
	</g>
	<g>
		<path style="fill:#407BFF;" d="M433.073,114.564H90.58c-2.127,0-3.852-1.725-3.852-3.852V95.16c0-2.127,1.725-3.852,3.852-3.852
			h342.493c2.127,0,3.852,1.725,3.852,3.852v15.552C436.925,112.84,435.201,114.564,433.073,114.564z"/>
		<path style="opacity:0.6;fill:#FFFFFF;enable-background:new    ;" d="M401.388,102.936c0,2.506-2.009,4.537-4.488,4.537
			c-2.479,0-4.488-2.032-4.488-4.537c0-2.506,2.009-4.537,4.488-4.537C399.379,98.399,401.388,100.43,401.388,102.936z"/>
		<path style="opacity:0.6;fill:#FFFFFF;enable-background:new    ;" d="M415.425,102.936c0,2.506-2.009,4.537-4.488,4.537
			c-2.479,0-4.488-2.032-4.488-4.537c0-2.506,2.009-4.537,4.488-4.537C413.416,98.399,415.425,100.43,415.425,102.936z"/>
		<path style="opacity:0.6;fill:#FFFFFF;enable-background:new    ;" d="M429.462,102.936c0,2.506-2.009,4.537-4.488,4.537
			c-2.479,0-4.488-2.032-4.488-4.537c0-2.506,2.009-4.537,4.488-4.537C427.453,98.399,429.462,100.43,429.462,102.936z"/>
		<rect x="94.893" y="97.103" style="opacity:0.6;fill:#FFFFFF;enable-background:new    ;" width="11.539" height="11.666"/>
	</g>
</g>
<g id="Asset_1">
	<g>
		<g>
			<rect x="72.67" y="171.044" style="fill:#407BFF;" width="107.836" height="20.629"/>
			<rect x="72.67" y="171.044" style="opacity:0.2;enable-background:new    ;" width="107.836" height="20.629"/>
		</g>
		<g>
			<rect x="79.58" y="177.052" style="fill:#FFFFFF;" width="8.613" height="8.613"/>
			
				<polyline style="fill:none;stroke:#407BFF;stroke-width:1.5;stroke-linecap:round;stroke-linejoin:round;stroke-miterlimit:10;" points="
				81.464,181.377 83.069,183.445 86.309,179.273 			"/>
		</g>
		<path style="fill:#407BFF;" d="M174.826,186.189h-8.66v-5.855h8.66V186.189z M170.497,176.028c-2.025,0-3.673,1.647-3.673,3.673h1
			c0-1.474,1.199-2.673,2.673-2.673c1.474,0,2.673,1.199,2.673,2.673h1C174.17,177.676,172.522,176.028,170.497,176.028z"/>
	</g>
	<g>
		<g>
			<rect x="56.824" y="209.175" style="fill:#407BFF;" width="107.836" height="20.629"/>
			<rect x="56.824" y="209.175" style="opacity:0.4;fill:#FFFFFF;enable-background:new    ;" width="107.836" height="20.629"/>
		</g>
		<g>
			<rect x="63.734" y="215.183" style="fill:#FFFFFF;" width="8.613" height="8.613"/>
		</g>
		<g>
			<rect x="150.32" y="218.466" style="fill:#FFFFFF;" width="8.66" height="5.854"/>
			<g>
				<path style="fill:#FFFFFF;" d="M158.324,217.832h-1c0-1.474-1.199-2.673-2.673-2.673c-1.474,0-2.673,1.199-2.673,2.673h-1
					c0-2.025,1.648-3.673,3.673-3.673C156.676,214.159,158.324,215.807,158.324,217.832z"/>
			</g>
		</g>
	</g>
	<g>
		<g>
			<rect x="73.229" y="249.098" style="fill:#407BFF;" width="107.836" height="20.629"/>
			<rect x="73.229" y="249.098" style="opacity:0.4;fill:#FFFFFF;enable-background:new    ;" width="107.836" height="20.629"/>
		</g>
		<g>
			<rect x="80.138" y="255.106" style="fill:#FFFFFF;" width="8.613" height="8.613"/>
			
				<polyline style="fill:none;stroke:#407BFF;stroke-width:1.5;stroke-linecap:round;stroke-linejoin:round;stroke-miterlimit:10;" points="
				82.023,259.432 83.628,261.499 86.867,257.327 			"/>
		</g>
		<g style="opacity:0.6;enable-background:new    ;">
			<rect x="166.725" y="258.389" style="fill:#FFFFFF;" width="8.66" height="5.854"/>
			<g>
				<path style="fill:#FFFFFF;" d="M174.729,257.756h-1c0-1.475-1.199-2.674-2.673-2.674c-1.474,0-2.673,1.199-2.673,2.674h-1
					c0-2.025,1.648-3.674,3.673-3.674C173.081,254.082,174.729,255.73,174.729,257.756z"/>
			</g>
		</g>
	</g>
</g>
<g id="Asset_2">
	<g>
		<g>
			<rect x="326.967" y="226.616" style="fill:#407BFF;" width="84.207" height="54.769"/>
			<rect x="326.967" y="226.616" style="opacity:0.5;fill:#FFFFFF;enable-background:new    ;" width="84.207" height="54.769"/>
		</g>
		<rect x="330.047" y="236.885" style="fill:#407BFF;" width="78.046" height="41.761"/>
		<g>
			<rect x="336.407" y="243.124" style="fill:#FFFFFF;" width="57.732" height="1.797"/>
			<rect x="336.407" y="248.627" style="fill:#FFFFFF;" width="27.7" height="1.796"/>
			<rect x="336.407" y="254.129" style="fill:#FFFFFF;" width="34.888" height="1.796"/>
			<rect x="336.407" y="259.631" style="fill:#FFFFFF;" width="12.296" height="1.796"/>
			<rect x="336.407" y="265.133" style="fill:#FFFFFF;" width="7.963" height="1.797"/>
		</g>
	</g>
	<g>
		<path style="fill:#407BFF;" d="M413.587,334.622v30.536c0,1.739-1.276,3.169-2.938,3.411c-0.165,0.033-0.341,0.044-0.517,0.044
			h-39.229c-1.904,0-3.455-1.541-3.455-3.455v-30.536c0-0.539,0.121-1.056,0.352-1.508c0.55-1.155,1.739-1.959,3.103-1.959h15.372
			c0.749,0,1.453-0.242,2.036-0.66c0.572-0.407,1.023-1.001,1.254-1.717c0.473-1.431,1.794-2.388,3.29-2.388h8.187
			c1.497,0,2.828,0.957,3.29,2.388c0.462,1.419,1.794,2.377,3.29,2.377h2.509C412.035,331.156,413.587,332.707,413.587,334.622z"/>
		<path style="opacity:0.3;fill:#FFFFFF;enable-background:new    ;" d="M410.648,336.064v32.505
			c-0.017,0.017-0.027,0.027-0.044,0.044h-39.702c-1.904,0-3.455-1.541-3.455-3.455v-30.536c0-0.539,0.121-1.056,0.352-1.508h39.899
			C409.328,333.115,410.648,334.435,410.648,336.064z"/>
	</g>
	<g>
		<polygon style="fill:#407BFF;" points="319.97,289.67 319.97,327.86 312.51,335.32 285.15,335.32 285.15,289.67 		"/>
		<polygon style="opacity:0.4;fill:#FFFFFF;enable-background:new    ;" points="319.97,289.67 319.97,327.86 312.51,335.32 
			285.15,335.32 285.15,289.67 		"/>
		<g>
			<polygon style="fill:#407BFF;" points="319.97,327.86 312.51,327.86 312.51,335.32 			"/>
		</g>
		<g>
			<rect x="289.492" y="297.418" style="fill:#407BFF;" width="26.256" height="1.433"/>
			<rect x="289.492" y="301.805" style="fill:#407BFF;" width="22.088" height="1.433"/>
			<rect x="289.492" y="306.193" style="fill:#407BFF;" width="26.256" height="1.433"/>
			<rect x="289.492" y="310.58" style="fill:#407BFF;" width="9.805" height="1.433"/>
			<rect x="289.492" y="314.967" style="fill:#407BFF;" width="6.35" height="1.433"/>
		</g>
	</g>
</g>
<g id="Selection">
	<g>
		<g>
			<rect x="272.254" y="143.901" style="fill:#407BFF;" width="71.187" height="58.821"/>
			<path style="opacity:0.6;fill:#FFFFFF;enable-background:new    ;" d="M272.254,143.901v58.821h71.187v-58.821H272.254z
				 M341.118,200.4h-66.543v-54.177h66.543V200.4z"/>
			<polygon style="opacity:0.3;fill:#FFFFFF;enable-background:new    ;" points="274.576,184.345 294.982,169.519 310.14,184.345 
				325.297,175.676 341.118,185.418 341.118,200.4 274.576,200.4 			"/>
			<path style="opacity:0.6;fill:#FFFFFF;enable-background:new    ;" d="M322.645,159.586c0,2.692-2.182,4.874-4.875,4.874
				c-2.692,0-4.875-2.182-4.875-4.874c0-2.692,2.182-4.875,4.875-4.875C320.462,154.712,322.645,156.894,322.645,159.586z"/>
		</g>
		<g>
			<g>
				<polyline style="fill:none;stroke:#263238;stroke-miterlimit:10;" points="348.087,205.165 348.087,207.165 346.087,207.165 
									"/>
				
					<line style="fill:none;stroke:#263238;stroke-miterlimit:10;stroke-dasharray:4.1812,3.1359;" x1="342.951" y1="207.165" x2="271.348" y2="207.165"/>
				<polyline style="fill:none;stroke:#263238;stroke-miterlimit:10;" points="269.78,207.165 267.78,207.165 267.78,205.165 				
					"/>
				
					<line style="fill:none;stroke:#263238;stroke-miterlimit:10;stroke-dasharray:3.8548,2.8911;" x1="267.78" y1="202.274" x2="267.78" y2="143.006"/>
				<polyline style="fill:none;stroke:#263238;stroke-miterlimit:10;" points="267.78,141.56 267.78,139.56 269.78,139.56 				"/>
				
					<line style="fill:none;stroke:#263238;stroke-miterlimit:10;stroke-dasharray:4.1812,3.1359;" x1="272.915" y1="139.56" x2="344.519" y2="139.56"/>
				<polyline style="fill:none;stroke:#263238;stroke-miterlimit:10;" points="346.087,139.56 348.087,139.56 348.087,141.56 				
					"/>
				
					<line style="fill:none;stroke:#263238;stroke-miterlimit:10;stroke-dasharray:3.8548,2.8911;" x1="348.087" y1="144.452" x2="348.087" y2="203.72"/>
			</g>
		</g>
		<rect x="346.51" y="137.984" style="fill:#263238;" width="3.154" height="3.154"/>
		<rect x="346.51" y="205.589" style="fill:#263238;" width="3.154" height="3.154"/>
		<rect x="266.203" y="205.589" style="fill:#263238;" width="3.154" height="3.154"/>
		<rect x="266.203" y="137.984" style="fill:#263238;" width="3.154" height="3.154"/>
		<rect x="306.27" y="137.984" style="fill:#263238;" width="3.154" height="3.154"/>
		<rect x="306.357" y="205.589" style="fill:#263238;" width="3.154" height="3.154"/>
		<rect x="346.51" y="171.786" style="fill:#263238;" width="3.154" height="3.154"/>
		<rect x="266.203" y="171.786" style="fill:#263238;" width="3.154" height="3.154"/>
	</g>
</g>
<g id="Character">
	<g>
		<path style="fill:#EBB376;" d="M174.986,236.62l-10.638,8.641c0,0-2.602,0.054-3.419,0.913c-0.817,0.859-3.958,7.244-3.512,8.115
			c0.447,0.871,5.696,2.592,6.803,1.562c1.107-1.029,3.029-6.937,2.992-7.568l13.595-9.119L174.986,236.62z"/>
		<g>
			<defs>
				<path id="XMLID_2_" d="M169.284,240.614l2.38,5.19c0,0,14.63-6.85,17.8-10.84c0.81-1.03,1.93-2.67,3.14-4.54
					c1.99-3.09,4.24-6.81,5.8-9.42c1.16-1.95,1.94-3.28,1.94-3.28l-8.28-13.06c-1.81,1.39-7.35,23.71-8.34,24.91
					C182.734,230.774,169.284,240.614,169.284,240.614z"/>
			</defs>
			<use xlink:href="#XMLID_2_"  style="overflow:visible;fill:#407BFF;"/>
			<clipPath id="XMLID_00000050633541525964497760000017570523540061339066_">
				<use xlink:href="#XMLID_2_"  style="overflow:visible;"/>
			</clipPath>
			
				<path style="opacity:0.1;clip-path:url(#XMLID_00000050633541525964497760000017570523540061339066_);enable-background:new    ;" d="
				M192.604,230.424c1.99-3.09,4.24-6.81,5.8-9.42l-3.85-9.5C194.554,211.504,192.464,222.404,192.604,230.424z"/>
		</g>
		<path style="fill:#EBB376;" d="M260.048,187.254l10.486-8.139c0,0,0.848-2.46,1.916-2.975c1.068-0.515,8.108-1.549,8.8-0.858
			c0.692,0.692,0.723,6.216-0.596,6.954c-1.319,0.739-7.532,0.759-8.121,0.53l-11.453,8.367L260.048,187.254z"/>
		<polygon style="fill:#EBB376;" points="171.525,410.997 177.802,412.105 180.376,403.546 182.725,395.69 175.487,393.162 
			173.386,402.604 		"/>
		<polygon style="opacity:0.2;enable-background:new    ;" points="173.351,402.798 180.346,403.718 182.71,395.776 175.48,393.205 
					"/>
		<polygon style="fill:#EBB376;" points="213.433,411.155 219.807,411.155 220.855,402.602 221.802,394.62 214.234,393.469 
			213.806,402.849 		"/>
		<polygon style="opacity:0.2;enable-background:new    ;" points="213.806,403.41 220.855,403.101 221.802,394.869 
			214.234,393.594 		"/>
		<g>
			<g>
				<path style="fill:#263238;" d="M172.76,395.932l10.32,1.819c10.414-25.945,17.821-47.602,23.052-65.574
					c2.818-9.698,5.05-18.321,6.737-25.973l-0.434,28.244v63.707h10.406c25.492-121,7.426-149.129,7.426-149.129l-30.497-5.098
					c-1.159,4.552-2.036,11.988-2.554,17.124l-1.376,10.112l-11.922,61.573L172.76,395.932z"/>
			</g>
		</g>
		<g>
			<polygon style="fill:#407BFF;" points="184.698,396.476 171.897,392.232 172.071,397.677 182.657,401.053 			"/>
			<polygon style="opacity:0.6;fill:#FFFFFF;enable-background:new    ;" points="184.698,396.476 171.897,392.232 172.071,397.677 
				182.657,401.053 			"/>
		</g>
		<g>
			<polygon style="fill:#407BFF;" points="224.209,397.068 210.865,395.115 211.982,400.446 222.995,401.93 			"/>
			<polygon style="opacity:0.6;fill:#FFFFFF;enable-background:new    ;" points="224.209,397.068 210.865,395.115 211.982,400.446 
				222.995,401.93 			"/>
		</g>
		<path style="opacity:0.2;enable-background:new    ;" d="M204.727,336.926c0.481-1.611,0.993-3.195,1.446-4.75
			c2.554-8.802,4.261-16.719,6.261-23.824v-0.019l1.042-13.081c0,0-6.523-14.372-4.083-24.484
			c-0.226,0.575-4.543,11.592-2.847,22.599C206.547,293.367,207.366,313.234,204.727,336.926z"/>
		<g>
			<path style="fill:#EBB376;" d="M203.85,191.535c0.083,0.056,0.176,0.11,0.266,0.146c1.236,0.657,2.635,1.258,4.155,1.403
				c4.255,0.415,7.004-0.517,8.601-2.626c0.009-0.001,0.009-0.001,0.009-0.001c2.214-3.139,2.213-8.191,1.069-14.133
				c-0.517-2.727-1.22-5.066-2.219-6.827c-0.012-0.018-0.021-0.087-0.033-0.104c-0.047-0.07-0.089-0.171-0.136-0.241
				c-1.469-2.451-3.566-3.889-6.659-4.209c-1.069-0.108-2.264-0.091-3.593,0.063C193.613,166.404,194.029,186.027,203.85,191.535z"
				/>
			<path style="opacity:0.2;enable-background:new    ;" d="M204.117,191.681c1.236,0.657,2.614,1.095,4.134,1.239
				c4.255,0.416,6.986-0.653,8.58-2.789c-1.97,0.713-4.677,1.236-7.49,0.357C207.568,189.939,205.759,190.574,204.117,191.681z"/>
			<path style="fill:#EBB376;" d="M203.241,201.246c-1.05,3.268,3.14,5.052,3.14,5.052c7.368-2.326,9.051-5.958,9.051-5.958
				c-5.597-3.656-3.036-12.192-3.036-12.192l-1.259,0.473l-8.587,0.821c0,0,1.897,4.715,2.106,5.768
				c-0.001,0.009,0.008,0.02,0.007,0.029C205.724,200.741,203.241,201.246,203.241,201.246z"/>
			<path style="fill:#263238;" d="M215.726,169.418c0,0,1.71,8.109-5.595,12.637c0,0-2.226,8.944-7.118,9.703
				c-6.669,1.035-13.805-7.718-12.749-17.716C191.633,161.077,210.55,157.575,215.726,169.418z"/>
			<path style="fill:#EBB376;" d="M213.757,179.191c-0.169-1.278-1.476-3.29-3.424-2.74c-2.017,0.569-2.496,5.785,2.704,6.26
				C213.782,182.78,214.109,181.857,213.757,179.191z"/>
		</g>
		<path style="fill:#263238;" d="M220.482,409.948h-7.114c-0.303,0.001-0.566,0.213-0.632,0.509l-1.461,6.597
			c-0.125,0.591,0.252,1.171,0.843,1.296c0.079,0.017,0.16,0.025,0.24,0.024c2.912-0.047,3.146-0.226,6.803-0.226
			c2.252,0,9.047,0.236,12.157,0.236s3.515-3.072,2.243-3.355c-5.711-1.244-10.009-2.969-11.837-4.608
			C221.387,410.108,220.941,409.939,220.482,409.948z"/>
		<path style="fill:#407BFF;" d="M220.99,410.975c-0.071-0.019-0.123-0.078-0.132-0.151c-0.012-0.069,0.022-0.138,0.085-0.17
			c0.264-0.17,2.658-1.64,3.478-1.216c0.189,0.089,0.307,0.281,0.302,0.49c0.049,0.357-0.09,0.714-0.367,0.943
			c-0.418,0.284-0.92,0.417-1.423,0.377C222.277,411.229,221.626,411.137,220.99,410.975z M221.499,410.73
			c0.865,0.292,1.808,0.245,2.639-0.132c0.177-0.159,0.265-0.395,0.236-0.632c-0.009-0.141-0.066-0.207-0.113-0.207
			c-0.069-0.037-0.148-0.054-0.226-0.047C223.132,409.886,222.272,410.232,221.499,410.73z"/>
		<path style="fill:#407BFF;" d="M220.943,411.012c-0.054-0.035-0.086-0.096-0.085-0.16c0.009-0.104,0.188-2.234,1.046-2.931
			c0.204-0.179,0.475-0.262,0.745-0.226c0.275-0.001,0.511,0.193,0.565,0.462c0.151,0.782-1.329,2.413-2.092,2.827h-0.085
			C221.01,411.003,220.977,411.013,220.943,411.012z M222.131,408.129c-0.521,0.666-0.827,1.474-0.876,2.318
			c0.763-0.575,1.706-1.809,1.611-2.29c-0.009-0.047-0.028-0.179-0.254-0.179h-0.085
			C222.381,407.978,222.24,408.032,222.131,408.129z"/>
		<path style="fill:#263238;" d="M178.046,409.948h-7.114c-0.303,0.001-0.566,0.213-0.631,0.509l-1.461,6.597
			c-0.125,0.591,0.253,1.171,0.843,1.296c0.079,0.017,0.16,0.025,0.24,0.024c2.912-0.047,3.146-0.226,6.803-0.226
			c2.252,0,9.047,0.236,12.157,0.236s3.515-3.072,2.243-3.355c-5.711-1.244-10.009-2.969-11.837-4.608
			C178.951,410.108,178.505,409.939,178.046,409.948z"/>
		<path style="fill:#407BFF;" d="M178.555,410.975c-0.071-0.019-0.123-0.078-0.132-0.151c-0.012-0.069,0.022-0.138,0.085-0.17
			c0.264-0.17,2.658-1.64,3.478-1.216c0.188,0.089,0.307,0.281,0.301,0.49c0.049,0.357-0.09,0.714-0.367,0.943
			c-0.418,0.284-0.92,0.417-1.423,0.377C179.841,411.229,179.19,411.137,178.555,410.975z M179.063,410.73
			c0.865,0.292,1.808,0.245,2.639-0.132c0.178-0.159,0.266-0.395,0.236-0.632c-0.009-0.141-0.066-0.207-0.113-0.207
			c-0.069-0.037-0.148-0.054-0.226-0.047C180.696,409.886,179.836,410.232,179.063,410.73z"/>
		<path style="fill:#407BFF;" d="M178.507,411.012c-0.054-0.035-0.086-0.096-0.085-0.16c0.009-0.104,0.188-2.234,1.046-2.931
			c0.204-0.179,0.475-0.262,0.744-0.226c0.275-0.001,0.512,0.193,0.566,0.462c0.151,0.782-1.329,2.413-2.092,2.827h-0.085
			C178.574,411.003,178.541,411.013,178.507,411.012z M179.695,408.129c-0.521,0.666-0.827,1.474-0.876,2.318
			c0.763-0.575,1.706-1.809,1.612-2.29c-0.009-0.047-0.028-0.179-0.254-0.179h-0.085
			C179.945,407.978,179.804,408.032,179.695,408.129z"/>
		<g>
			<defs>
				<path id="XMLID_1_" d="M230.267,249.139c0,0,5.818-35.449-4.181-51.342c0,0-19.971-1.241-34.022,6.868
					c0,0,5.806,15.783,6.67,44.473H230.267z"/>
			</defs>
			<use xlink:href="#XMLID_1_"  style="overflow:visible;fill:#407BFF;"/>
			<clipPath id="XMLID_00000149353298146324371570000002487812932505843845_">
				<use xlink:href="#XMLID_1_"  style="overflow:visible;"/>
			</clipPath>
			
				<path style="opacity:0.1;clip-path:url(#XMLID_00000149353298146324371570000002487812932505843845_);enable-background:new    ;" d="
				M232.089,222.011c0.43-4.81-0.961-9.44-1.201-13.52c-3.67-3.06-6.574-7.495-6.574-7.495S222.495,215.356,232.089,222.011z"/>
		</g>
		<path style="fill:#407BFF;" d="M223.613,197.729c0,0,19.791-2.32,22.768-3.568c1.864-0.782,16.411-10.288,16.411-10.288
			l3.411,5.079c0,0-14.884,12.02-17.4,13.401c-5.902,3.241-19.164,7.813-19.164,7.813S221.626,204.596,223.613,197.729z"/>
		<path style="fill:#263238;" d="M215.432,174.786c0,0,8.226-8.226,0.469-13.764c-7.757-5.538-15.556,1.687-15.556,1.687
			s-18.569,4.484-14.616,16.827c3.953,12.343,6.535,13.395,0.656,19.726c-5.879,6.331-11.889,15.71-5.879,21.702
			c6.01,5.992,27.016-0.173,33.392-9.222C220.275,202.692,209.006,183.275,215.432,174.786z"/>
		<g>
			<polygon points="198.735,249.139 198.609,245.777 230.632,246.59 230.633,249.7 			"/>
			<rect x="207.598" y="246.005" style="fill:#263238;" width="1.289" height="3.312"/>
			<rect x="222.531" y="246.385" style="fill:#263238;" width="1.139" height="3.615"/>
			<rect x="199.489" y="245.827" style="fill:#263238;" width="1.089" height="3.872"/>
		</g>
	</g>
</g>
</svg>
